<svg xmlns="http://www.w3.org/2000/svg" viewBox="0 0 700 500"><g id="freepik--background-simple--inject-61"><path d="M630.62,173.77a263.66,263.66,0,0,0-43.2-65.06q-5-5.53-10.36-10.73c-40.81-39.43-98.9-62.06-155.19-54.89C383.45,48,347.62,66.09,317,89.77c-19.58,15.13-38.09,33-61.67,40.5-29.91,9.48-62.17.53-93.54.39-48.52-.22-97.65,23.1-124.27,63.67-24.09,36.72-28,85.86-9.94,125.91S85,390,128.44,396.26c27.37,4,55.3-.78,82.87,1.43,40.25,3.23,77.64,21,116.08,33.37,70,22.49,148.75,26.53,215.3-4.69,54.76-25.69,99.27-78.92,107.56-139.74C655.49,248.15,646.88,208.66,630.62,173.77Z" style="fill:#F2F2F2"></path><path d="M630.62,173.77a263.66,263.66,0,0,0-43.2-65.06q-5-5.53-10.36-10.73c-40.81-39.43-98.9-62.06-155.19-54.89C383.45,48,347.62,66.09,317,89.77c-19.58,15.13-38.09,33-61.67,40.5-29.91,9.48-62.17.53-93.54.39-48.52-.22-97.65,23.1-124.27,63.67-24.09,36.72-28,85.86-9.94,125.91S85,390,128.44,396.26c27.37,4,55.3-.78,82.87,1.43,40.25,3.23,77.64,21,116.08,33.37,70,22.49,148.75,26.53,215.3-4.69,54.76-25.69,99.27-78.92,107.56-139.74C655.49,248.15,646.88,208.66,630.62,173.77Z" style="fill:#fff;opacity:0.7000000000000001"></path></g><g id="freepik--Floor--inject-61"><line x1="471" y1="431.55" x2="678" y2="431.55" style="fill:none;stroke:#263238;stroke-miterlimit:10"></line><line x1="76" y1="431.55" x2="462" y2="431.55" style="fill:none;stroke:#263238;stroke-miterlimit:10"></line><line x1="58.45" y1="431.55" x2="67" y2="431.55" style="fill:none;stroke:#263238;stroke-miterlimit:10"></line></g><g id="freepik--Plant--inject-61"><line x1="620.27" y1="255.01" x2="634.19" y2="388.44" style="fill:none;stroke:#263238;stroke-miterlimit:10;stroke-width:2px"></line><line x1="631.95" y1="362.9" x2="625.63" y2="356.24" style="fill:none;stroke:#263238;stroke-miterlimit:10;stroke-width:2px"></line><path d="M627.55,358.23a7.14,7.14,0,0,0-2.51-5.35c-1.62-1.45-10.15-5-11-2C613.2,354.12,621.93,360.53,627.55,358.23Z" style="fill:#F2F2F2;stroke:#263238;stroke-miterlimit:10"></path><line x1="627.55" y1="358.23" x2="619.43" y2="353.18" style="fill:none;stroke:#263238;stroke-miterlimit:10;stroke-width:0.5px"></line><line x1="633.53" y1="378.08" x2="627.22" y2="371.41" style="fill:none;stroke:#263238;stroke-miterlimit:10;stroke-width:2px"></line><path d="M629.13,373.41a7.12,7.12,0,0,0-2.51-5.36c-1.62-1.44-10.15-5-11-2C614.79,369.29,623.51,375.7,629.13,373.41Z" style="fill:#F2F2F2;stroke:#263238;stroke-miterlimit:10"></path><line x1="629.13" y1="373.41" x2="621.02" y2="368.35" style="fill:none;stroke:#263238;stroke-miterlimit:10;stroke-width:0.5px"></line><line x1="628.08" y1="325.88" x2="621.77" y2="319.21" style="fill:none;stroke:#263238;stroke-miterlimit:10;stroke-width:2px"></line><path d="M623.69,321.21a7.16,7.16,0,0,0-2.52-5.36c-1.62-1.44-10.14-5-10.95-2C609.34,317.09,618.07,323.5,623.69,321.21Z" style="fill:#F2F2F2;stroke:#263238;stroke-miterlimit:10"></path><line x1="623.69" y1="321.21" x2="615.57" y2="316.15" style="fill:none;stroke:#263238;stroke-miterlimit:10;stroke-width:0.5px"></line><line x1="629.67" y1="341.05" x2="623.35" y2="334.38" style="fill:none;stroke:#263238;stroke-miterlimit:10;stroke-width:2px"></line><path d="M625.27,336.38a7.14,7.14,0,0,0-2.51-5.35c-1.62-1.45-10.15-5-11-2C610.92,332.26,619.65,338.68,625.27,336.38Z" style="fill:#F2F2F2;stroke:#263238;stroke-miterlimit:10"></path><line x1="625.27" y1="336.38" x2="617.15" y2="331.32" style="fill:none;stroke:#263238;stroke-miterlimit:10;stroke-width:0.5px"></line><line x1="625.51" y1="301.23" x2="619.2" y2="294.56" style="fill:none;stroke:#263238;stroke-miterlimit:10;stroke-width:2px"></line><path d="M621.11,296.56a7.12,7.12,0,0,0-2.51-5.36c-1.62-1.44-10.15-5-11-2C606.77,292.44,615.49,298.85,621.11,296.56Z" style="fill:#F2F2F2;stroke:#263238;stroke-miterlimit:10"></path><line x1="621.11" y1="296.56" x2="613" y2="291.5" style="fill:none;stroke:#263238;stroke-miterlimit:10;stroke-width:0.5px"></line><line x1="622.93" y1="276.47" x2="616.61" y2="269.8" style="fill:none;stroke:#263238;stroke-miterlimit:10;stroke-width:2px"></line><path d="M618.53,271.8a7.14,7.14,0,0,0-2.51-5.35c-1.62-1.45-10.15-5-11-2C604.18,267.68,612.91,274.1,618.53,271.8Z" style="fill:#F2F2F2;stroke:#263238;stroke-miterlimit:10"></path><line x1="618.53" y1="271.8" x2="610.41" y2="266.74" style="fill:none;stroke:#263238;stroke-miterlimit:10;stroke-width:0.5px"></line><line x1="630.88" y1="353.93" x2="635.68" y2="346.1" style="fill:none;stroke:#263238;stroke-miterlimit:10;stroke-width:2px"></line><path d="M634.22,348.45a7.14,7.14,0,0,1,1.35-5.76c1.29-1.75,8.89-7,10.3-4.25C647.41,341.46,640.19,349.54,634.22,348.45Z" style="fill:#F2F2F2;stroke:#263238;stroke-miterlimit:10"></path><line x1="634.22" y1="348.45" x2="641.53" y2="341.46" style="fill:none;stroke:#263238;stroke-miterlimit:10;stroke-width:0.5px"></line><line x1="626.72" y1="313.99" x2="631.52" y2="306.17" style="fill:none;stroke:#263238;stroke-miterlimit:10;stroke-width:2px"></line><path d="M630.05,308.52a7.17,7.17,0,0,1,1.36-5.76c1.28-1.75,8.89-7,10.3-4.25C643.24,301.53,636,309.6,630.05,308.52Z" style="fill:#F2F2F2;stroke:#263238;stroke-miterlimit:10"></path><line x1="630.05" y1="308.52" x2="637.36" y2="301.53" style="fill:none;stroke:#263238;stroke-miterlimit:10;stroke-width:0.5px"></line><line x1="624.89" y1="296.45" x2="629.69" y2="288.62" style="fill:none;stroke:#263238;stroke-miterlimit:10;stroke-width:2px"></line><path d="M628.22,291a7.18,7.18,0,0,1,1.35-5.76c1.29-1.75,8.89-7,10.31-4.25C641.41,284,634.2,292.06,628.22,291Z" style="fill:#F2F2F2;stroke:#263238;stroke-miterlimit:10"></path><line x1="628.22" y1="290.97" x2="635.53" y2="283.98" style="fill:none;stroke:#263238;stroke-miterlimit:10;stroke-width:0.5px"></line><line x1="622.2" y1="270.72" x2="627" y2="262.89" style="fill:none;stroke:#263238;stroke-miterlimit:10;stroke-width:2px"></line><path d="M625.54,265.25a7.14,7.14,0,0,1,1.35-5.76c1.29-1.75,8.89-7,10.3-4.25C638.73,258.25,631.51,266.33,625.54,265.25Z" style="fill:#F2F2F2;stroke:#263238;stroke-miterlimit:10"></path><line x1="625.54" y1="265.25" x2="632.85" y2="258.26" style="fill:none;stroke:#263238;stroke-miterlimit:10;stroke-width:0.5px"></line><path d="M620.15,254.27a7.12,7.12,0,0,1,1.35-5.75c1.29-1.75,8.89-7,10.3-4.25C633.34,247.28,626.12,255.36,620.15,254.27Z" style="fill:#F2F2F2;stroke:#263238;stroke-miterlimit:10"></path><line x1="620.15" y1="254.27" x2="627.46" y2="247.29" style="fill:none;stroke:#263238;stroke-miterlimit:10;stroke-width:0.5px"></line><path d="M620.57,254.57a7.12,7.12,0,0,1-5.58-1.94c-1.61-1.47-6-9.58-3.15-10.69C615,240.72,622.28,248.75,620.57,254.57Z" style="fill:#F2F2F2;stroke:#263238;stroke-miterlimit:10"></path><line x1="620.57" y1="254.57" x2="614.39" y2="246.57" style="fill:none;stroke:#263238;stroke-miterlimit:10;stroke-width:0.5px"></line><line x1="656.99" y1="273.39" x2="643.15" y2="406.82" style="fill:none;stroke:#263238;stroke-miterlimit:10;stroke-width:2px"></line><line x1="646.21" y1="381.37" x2="641.4" y2="373.55" style="fill:none;stroke:#263238;stroke-miterlimit:10;stroke-width:2px"></line><path d="M642.87,375.9a7.17,7.17,0,0,0-1.36-5.76c-1.29-1.75-8.89-7-10.3-4.24C629.67,368.91,636.89,377,642.87,375.9Z" style="fill:#F2F2F2;stroke:#263238;stroke-miterlimit:10"></path><line x1="642.87" y1="375.9" x2="635.97" y2="369.28" style="fill:none;stroke:#263238;stroke-miterlimit:10;stroke-width:0.5px"></line><line x1="650.05" y1="344.34" x2="645.25" y2="336.52" style="fill:none;stroke:#263238;stroke-miterlimit:10;stroke-width:2px"></line><path d="M646.71,338.87a7.17,7.17,0,0,0-1.36-5.76c-1.28-1.75-8.89-7-10.3-4.24C633.52,331.88,640.74,340,646.71,338.87Z" style="fill:#F2F2F2;stroke:#263238;stroke-miterlimit:10"></path><line x1="646.71" y1="338.87" x2="639.81" y2="332.25" style="fill:none;stroke:#263238;stroke-miterlimit:10;stroke-width:0.5px"></line><line x1="648.47" y1="359.52" x2="643.67" y2="351.69" style="fill:none;stroke:#263238;stroke-miterlimit:10;stroke-width:2px"></line><path d="M645.14,354a7.14,7.14,0,0,0-1.36-5.75c-1.29-1.75-8.89-7-10.3-4.25C631.94,347.06,639.16,355.13,645.14,354Z" style="fill:#F2F2F2;stroke:#263238;stroke-miterlimit:10"></path><line x1="645.14" y1="354.04" x2="638.23" y2="347.42" style="fill:none;stroke:#263238;stroke-miterlimit:10;stroke-width:0.5px"></line><line x1="652.61" y1="319.69" x2="647.8" y2="311.87" style="fill:none;stroke:#263238;stroke-miterlimit:10;stroke-width:2px"></line><path d="M649.27,314.22a7.17,7.17,0,0,0-1.36-5.76c-1.29-1.75-8.89-7-10.3-4.24C636.07,307.23,643.29,315.31,649.27,314.22Z" style="fill:#F2F2F2;stroke:#263238;stroke-miterlimit:10"></path><line x1="649.27" y1="314.22" x2="642.37" y2="307.59" style="fill:none;stroke:#263238;stroke-miterlimit:10;stroke-width:0.5px"></line><line x1="655.18" y1="294.93" x2="650.37" y2="287.11" style="fill:none;stroke:#263238;stroke-miterlimit:10;stroke-width:2px"></line><path d="M651.84,289.46a7.17,7.17,0,0,0-1.36-5.76c-1.29-1.75-8.89-7-10.3-4.24C638.64,282.47,645.86,290.55,651.84,289.46Z" style="fill:#F2F2F2;stroke:#263238;stroke-miterlimit:10"></path><line x1="651.84" y1="289.46" x2="644.93" y2="282.84" style="fill:none;stroke:#263238;stroke-miterlimit:10;stroke-width:0.5px"></line><line x1="647.02" y1="372.37" x2="653.33" y2="365.7" style="fill:none;stroke:#263238;stroke-miterlimit:10;stroke-width:2px"></line><path d="M651.41,367.7a7.17,7.17,0,0,1,2.51-5.36c1.62-1.45,10.14-5,11-2C665.76,363.57,657,370,651.41,367.7Z" style="fill:#F2F2F2;stroke:#263238;stroke-miterlimit:10"></path><line x1="651.41" y1="367.7" x2="660" y2="362.36" style="fill:none;stroke:#263238;stroke-miterlimit:10;stroke-width:0.5px"></line><line x1="651.16" y1="332.43" x2="657.47" y2="325.76" style="fill:none;stroke:#263238;stroke-miterlimit:10;stroke-width:2px"></line><path d="M655.55,327.76a7.14,7.14,0,0,1,2.51-5.35c1.62-1.45,10.15-5,11-2C669.9,323.63,661.18,330.05,655.55,327.76Z" style="fill:#F2F2F2;stroke:#263238;stroke-miterlimit:10"></path><line x1="655.55" y1="327.76" x2="664.14" y2="322.43" style="fill:none;stroke:#263238;stroke-miterlimit:10;stroke-width:0.5px"></line><line x1="652.98" y1="314.89" x2="659.29" y2="308.21" style="fill:none;stroke:#263238;stroke-miterlimit:10;stroke-width:2px"></line><path d="M657.37,310.21a7.14,7.14,0,0,1,2.51-5.35c1.62-1.45,10.15-5,11-2C671.72,306.09,663,312.51,657.37,310.21Z" style="fill:#F2F2F2;stroke:#263238;stroke-miterlimit:10"></path><line x1="657.37" y1="310.21" x2="665.97" y2="304.88" style="fill:none;stroke:#263238;stroke-miterlimit:10;stroke-width:0.5px"></line><line x1="655.65" y1="289.16" x2="661.96" y2="282.49" style="fill:none;stroke:#263238;stroke-miterlimit:10;stroke-width:2px"></line><path d="M660,284.49a7.17,7.17,0,0,1,2.51-5.36c1.62-1.45,10.15-5,11-2C674.39,280.36,665.67,286.78,660,284.49Z" style="fill:#F2F2F2;stroke:#263238;stroke-miterlimit:10"></path><line x1="660.04" y1="284.49" x2="668.64" y2="279.15" style="fill:none;stroke:#263238;stroke-miterlimit:10;stroke-width:0.5px"></line><path d="M657,272.64a7.17,7.17,0,0,1,2.51-5.36c1.62-1.44,10.14-5,11-2C671.38,268.51,662.65,274.93,657,272.64Z" style="fill:#F2F2F2;stroke:#263238;stroke-miterlimit:10"></path><line x1="657.03" y1="272.64" x2="665.62" y2="267.31" style="fill:none;stroke:#263238;stroke-miterlimit:10;stroke-width:0.5px"></line><path d="M657.38,273a7.15,7.15,0,0,1-5.06-3.06c-1.27-1.76-4-10.61-.88-11.1C654.78,258.32,660.25,267.67,657.38,273Z" style="fill:#F2F2F2;stroke:#263238;stroke-miterlimit:10"></path><line x1="657.38" y1="273.02" x2="652.98" y2="263.92" style="fill:none;stroke:#263238;stroke-miterlimit:10;stroke-width:0.5px"></line><line x1="641.12" y1="219.06" x2="641.12" y2="387.79" style="fill:none;stroke:#263238;stroke-miterlimit:10;stroke-width:2px"></line><line x1="641.26" y1="362.42" x2="635.67" y2="355.13" style="fill:none;stroke:#263238;stroke-miterlimit:10;stroke-width:2px"></line><path d="M637.37,357.32a7.14,7.14,0,0,0-1.94-5.59c-1.46-1.61-9.57-6.06-10.69-3.16C623.53,351.73,631.54,359,637.37,357.32Z" style="fill:#F2F2F2;stroke:#263238;stroke-miterlimit:10"></path><line x1="637.37" y1="357.32" x2="629.82" y2="351.44" style="fill:none;stroke:#263238;stroke-miterlimit:10;stroke-width:0.5px"></line><line x1="641.26" y1="330.71" x2="635.67" y2="323.42" style="fill:none;stroke:#263238;stroke-miterlimit:10;stroke-width:2px"></line><path d="M637.37,325.61a7.14,7.14,0,0,0-1.94-5.59c-1.46-1.61-9.57-6.06-10.69-3.16C623.53,320,631.54,327.31,637.37,325.61Z" style="fill:#F2F2F2;stroke:#263238;stroke-miterlimit:10"></path><line x1="637.37" y1="325.61" x2="629.82" y2="319.73" style="fill:none;stroke:#263238;stroke-miterlimit:10;stroke-width:0.5px"></line><line x1="641.26" y1="293.48" x2="635.67" y2="286.19" style="fill:none;stroke:#263238;stroke-miterlimit:10;stroke-width:2px"></line><path d="M637.37,288.38a7.14,7.14,0,0,0-1.94-5.59c-1.46-1.6-9.57-6.06-10.69-3.15C623.53,282.79,631.54,290.08,637.37,288.38Z" style="fill:#F2F2F2;stroke:#263238;stroke-miterlimit:10"></path><line x1="637.37" y1="288.38" x2="629.82" y2="282.5" style="fill:none;stroke:#263238;stroke-miterlimit:10;stroke-width:0.5px"></line><line x1="641.26" y1="268.7" x2="635.67" y2="261.41" style="fill:none;stroke:#263238;stroke-miterlimit:10;stroke-width:2px"></line><path d="M637.37,263.6a7.14,7.14,0,0,0-1.94-5.59c-1.46-1.61-9.57-6.06-10.69-3.16C623.53,258,631.54,265.3,637.37,263.6Z" style="fill:#F2F2F2;stroke:#263238;stroke-miterlimit:10"></path><line x1="637.37" y1="263.6" x2="629.82" y2="257.72" style="fill:none;stroke:#263238;stroke-miterlimit:10;stroke-width:0.5px"></line><line x1="641.26" y1="243.81" x2="635.67" y2="236.52" style="fill:none;stroke:#263238;stroke-miterlimit:10;stroke-width:2px"></line><path d="M637.37,238.7a7.12,7.12,0,0,0-1.94-5.58c-1.46-1.61-9.57-6.06-10.69-3.16C623.53,233.12,631.54,240.4,637.37,238.7Z" style="fill:#F2F2F2;stroke:#263238;stroke-miterlimit:10"></path><line x1="637.37" y1="238.7" x2="629.82" y2="232.83" style="fill:none;stroke:#263238;stroke-miterlimit:10;stroke-width:0.5px"></line><line x1="641.14" y1="372.1" x2="646.72" y2="364.81" style="fill:none;stroke:#263238;stroke-miterlimit:10;stroke-width:2px"></line><path d="M645,367a7.18,7.18,0,0,1,2-5.59c1.46-1.6,9.57-6.06,10.68-3.15C658.87,361.41,650.85,368.7,645,367Z" style="fill:#F2F2F2;stroke:#263238;stroke-miterlimit:10"></path><line x1="645.02" y1="367" x2="653.02" y2="360.81" style="fill:none;stroke:#263238;stroke-miterlimit:10;stroke-width:0.5px"></line><line x1="641.14" y1="321.67" x2="646.72" y2="314.38" style="fill:none;stroke:#263238;stroke-miterlimit:10;stroke-width:2px"></line><path d="M645,316.57a7.17,7.17,0,0,1,2-5.59c1.46-1.61,9.57-6.06,10.68-3.16C658.87,311,650.85,318.27,645,316.57Z" style="fill:#F2F2F2;stroke:#263238;stroke-miterlimit:10"></path><line x1="645.02" y1="316.57" x2="653.02" y2="310.38" style="fill:none;stroke:#263238;stroke-miterlimit:10;stroke-width:0.5px"></line><line x1="641.14" y1="296.78" x2="646.72" y2="289.49" style="fill:none;stroke:#263238;stroke-miterlimit:10;stroke-width:2px"></line><path d="M645,291.68a7.17,7.17,0,0,1,2-5.59c1.46-1.61,9.57-6.06,10.68-3.16C658.87,286.09,650.85,293.38,645,291.68Z" style="fill:#F2F2F2;stroke:#263238;stroke-miterlimit:10"></path><line x1="645.02" y1="291.68" x2="653.02" y2="285.49" style="fill:none;stroke:#263238;stroke-miterlimit:10;stroke-width:0.5px"></line><line x1="641.14" y1="263.88" x2="646.72" y2="256.59" style="fill:none;stroke:#263238;stroke-miterlimit:10;stroke-width:2px"></line><path d="M645,258.78a7.17,7.17,0,0,1,2-5.59c1.46-1.61,9.57-6.06,10.68-3.16C658.87,253.19,650.85,260.48,645,258.78Z" style="fill:#F2F2F2;stroke:#263238;stroke-miterlimit:10"></path><line x1="645.02" y1="258.78" x2="653.02" y2="252.59" style="fill:none;stroke:#263238;stroke-miterlimit:10;stroke-width:0.5px"></line><line x1="641.14" y1="238.01" x2="646.72" y2="230.73" style="fill:none;stroke:#263238;stroke-miterlimit:10;stroke-width:2px"></line><path d="M645,232.91a7.15,7.15,0,0,1,2-5.58c1.46-1.61,9.57-6.07,10.68-3.16C658.87,227.33,650.85,234.61,645,232.91Z" style="fill:#F2F2F2;stroke:#263238;stroke-miterlimit:10"></path><line x1="645.02" y1="232.91" x2="653.02" y2="226.72" style="fill:none;stroke:#263238;stroke-miterlimit:10;stroke-width:0.5px"></line><path d="M640.8,221.44a7.19,7.19,0,0,1,1.94-5.59c1.47-1.6,9.57-6.06,10.69-3.15C654.65,215.85,646.63,223.14,640.8,221.44Z" style="fill:#F2F2F2;stroke:#263238;stroke-miterlimit:10"></path><line x1="640.8" y1="221.44" x2="648.8" y2="215.25" style="fill:none;stroke:#263238;stroke-miterlimit:10;stroke-width:0.5px"></line><path d="M641.19,221.78a7.14,7.14,0,0,1-5.35-2.51c-1.45-1.63-5-10.16-2-11C637.09,207.43,643.49,216.17,641.19,221.78Z" style="fill:#F2F2F2;stroke:#263238;stroke-miterlimit:10"></path><line x1="641.19" y1="221.78" x2="635.87" y2="213.18" style="fill:none;stroke:#263238;stroke-miterlimit:10;stroke-width:0.5px"></line><polygon points="648.07 431.55 630.2 431.55 627.96 386.42 650.3 386.42 648.07 431.55" style="fill:#263238;stroke:#263238;stroke-miterlimit:10"></polygon></g><g id="freepik--Graphics--inject-61"><rect x="260.36" y="78.58" width="9.48" height="4.53" style="fill:none;stroke:#263238;stroke-miterlimit:10"></rect><rect x="271.49" y="78.58" width="9.48" height="4.53" style="fill:none;stroke:#263238;stroke-miterlimit:10"></rect><rect x="282.62" y="78.58" width="9.48" height="4.53" style="fill:none;stroke:#263238;stroke-miterlimit:10"></rect><rect x="293.75" y="78.58" width="9.48" height="4.53" style="fill:none;stroke:#263238;stroke-miterlimit:10"></rect><rect x="304.87" y="78.58" width="9.48" height="4.53" style="fill:none;stroke:#263238;stroke-miterlimit:10"></rect><rect x="316" y="78.58" width="9.48" height="4.53" style="fill:none;stroke:#263238;stroke-miterlimit:10"></rect><rect x="327.13" y="78.58" width="9.48" height="4.53" style="fill:none;stroke:#263238;stroke-miterlimit:10"></rect><rect x="338.25" y="78.58" width="9.48" height="4.53" style="fill:none;stroke:#263238;stroke-miterlimit:10"></rect><rect x="260.36" y="86" width="9.48" height="4.53" style="fill:none;stroke:#263238;stroke-miterlimit:10"></rect><rect x="271.49" y="86" width="9.48" height="4.53" style="fill:none;stroke:#263238;stroke-miterlimit:10"></rect><rect x="282.62" y="86" width="9.48" height="4.53" style="fill:none;stroke:#263238;stroke-miterlimit:10"></rect><rect x="293.75" y="86" width="9.48" height="4.53" style="fill:none;stroke:#263238;stroke-miterlimit:10"></rect><rect x="304.87" y="86" width="9.48" height="4.53" style="fill:none;stroke:#263238;stroke-miterlimit:10"></rect><rect x="316" y="86" width="9.48" height="4.53" style="fill:none;stroke:#263238;stroke-miterlimit:10"></rect><rect x="327.13" y="86" width="9.48" height="4.53" style="fill:none;stroke:#263238;stroke-miterlimit:10"></rect><rect x="338.25" y="86" width="9.48" height="4.53" style="fill:none;stroke:#263238;stroke-miterlimit:10"></rect><rect x="260.36" y="93.42" width="9.48" height="4.53" style="fill:none;stroke:#263238;stroke-miterlimit:10"></rect><rect x="271.49" y="93.42" width="9.48" height="4.53" style="fill:none;stroke:#263238;stroke-miterlimit:10"></rect><rect x="282.62" y="93.42" width="9.48" height="4.53" style="fill:none;stroke:#263238;stroke-miterlimit:10"></rect><rect x="293.75" y="93.42" width="9.48" height="4.53" style="fill:none;stroke:#263238;stroke-miterlimit:10"></rect><rect x="304.87" y="93.42" width="9.48" height="4.53" style="fill:none;stroke:#263238;stroke-miterlimit:10"></rect><rect x="316" y="93.42" width="9.48" height="4.53" style="fill:none;stroke:#263238;stroke-miterlimit:10"></rect><rect x="327.13" y="93.42" width="9.48" height="4.53" style="fill:none;stroke:#263238;stroke-miterlimit:10"></rect><rect x="338.25" y="93.42" width="9.48" height="4.53" style="fill:none;stroke:#263238;stroke-miterlimit:10"></rect><rect x="260.36" y="100.84" width="9.48" height="4.53" style="fill:none;stroke:#263238;stroke-miterlimit:10"></rect><rect x="271.49" y="100.84" width="9.48" height="4.53" style="fill:none;stroke:#263238;stroke-miterlimit:10"></rect><rect x="282.62" y="100.84" width="30.91" height="4.53" style="fill:none;stroke:#263238;stroke-miterlimit:10"></rect><rect x="316" y="100.84" width="9.48" height="4.53" style="fill:none;stroke:#263238;stroke-miterlimit:10"></rect><rect x="327.13" y="100.84" width="9.48" height="4.53" style="fill:none;stroke:#263238;stroke-miterlimit:10"></rect><rect x="338.25" y="100.84" width="9.48" height="4.53" style="fill:none;stroke:#263238;stroke-miterlimit:10"></rect><path d="M358.43,155.49s25.73-36,65-56.62" style="fill:none;stroke:#263238;stroke-miterlimit:10"></path><line x1="396.33" y1="116.65" x2="398.2" y2="88.1" style="fill:none;stroke:#263238;stroke-miterlimit:10"></line><line x1="386.98" y1="124.93" x2="414.2" y2="127.41" style="fill:none;stroke:#263238;stroke-miterlimit:10"></line><path d="M396.88,102.05s-6.5-3.4-6.19-13.92a27,27,0,0,1,7.42-17.32A34.73,34.73,0,0,1,404,87.51C404.61,97.1,396.88,102.05,396.88,102.05Z" style="fill:none;stroke:#263238;stroke-miterlimit:10"></path><path d="M375.23,123.08s-6.49-3.4-6.19-13.92a27,27,0,0,1,7.43-17.32,34.78,34.78,0,0,1,5.87,16.7C383,118.13,375.23,123.08,375.23,123.08Z" style="fill:none;stroke:#263238;stroke-miterlimit:10"></path><path d="M402.44,126.17a15.37,15.37,0,0,1,11.76-5.26c7.73,0,15.46,10.52,15.46,10.52A40.85,40.85,0,0,1,413,133.9C403.68,133.28,402.44,126.17,402.44,126.17Z" style="fill:none;stroke:#263238;stroke-miterlimit:10"></path><path d="M411.72,106.38s-3.09-9.59,6.8-13.61a24.06,24.06,0,0,1,17.94-.31s0,10.21-9,14.23S411.72,106.38,411.72,106.38Z" style="fill:none;stroke:#263238;stroke-miterlimit:10"></path><line x1="376.16" y1="134.83" x2="375.54" y2="111.02" style="fill:none;stroke:#263238;stroke-miterlimit:10"></line><polygon points="591.89 91.92 544.02 91.92 544.02 122.08 571.14 122.08 570.25 135.85 580.89 122.08 591.89 122.08 591.89 91.92" style="fill:none;stroke:#263238;stroke-miterlimit:10"></polygon><polygon points="617.54 126.67 584.68 126.67 584.68 147.38 603.29 147.38 602.68 156.83 609.99 147.38 617.54 147.38 617.54 126.67" style="fill:none;stroke:#263238;stroke-miterlimit:10"></polygon><path d="M560.73,107a2.63,2.63,0,1,1-2.63-2.63A2.62,2.62,0,0,1,560.73,107Z" style="fill:none;stroke:#263238;stroke-miterlimit:10"></path><path d="M571.87,107a2.62,2.62,0,1,1-2.62-2.63A2.62,2.62,0,0,1,571.87,107Z" style="fill:none;stroke:#263238;stroke-miterlimit:10"></path><path d="M583,107a2.62,2.62,0,1,1-2.62-2.63A2.62,2.62,0,0,1,583,107Z" style="fill:none;stroke:#263238;stroke-miterlimit:10"></path><polygon points="65.58 179.91 101.82 179.91 101.82 202.75 81.29 202.75 81.96 213.17 73.91 202.75 65.58 202.75 65.58 179.91" style="fill:none;stroke:#263238;stroke-miterlimit:10"></polygon><polygon points="46.16 206.22 71.04 206.22 71.04 221.9 56.95 221.9 57.41 229.06 51.88 221.9 46.16 221.9 46.16 206.22" style="fill:none;stroke:#263238;stroke-miterlimit:10"></polygon><circle cx="91.16" cy="191.33" r="1.99" style="fill:none;stroke:#263238;stroke-miterlimit:10"></circle><circle cx="82.72" cy="191.33" r="1.99" style="fill:none;stroke:#263238;stroke-miterlimit:10"></circle><circle cx="74.28" cy="191.33" r="1.99" style="fill:none;stroke:#263238;stroke-miterlimit:10"></circle><path d="M110.62,112.4a4.52,4.52,0,0,1-.22-1.54c0-5.51,4.32-6,4.32-12.28,0-1.8-.72-2.49-2-2.49s-2,.69-2,2.49v2.73H107V98.83c0-4,2-6.34,5.84-6.34s5.83,2.31,5.83,6.34c0,6.55-4.68,7.56-4.68,12.17a6.58,6.58,0,0,0,.14,1.4Zm3.63,1.77V118h-3.81v-3.82Z" style="fill:none;stroke:#263238;stroke-miterlimit:10"></path><path d="M241,380.7a4.55,4.55,0,0,1-.22-1.55c0-5.51,4.32-6,4.32-12.28,0-1.8-.72-2.48-2-2.48s-2,.68-2,2.48v2.74h-3.74v-2.48c0-4,2-6.34,5.83-6.34s5.83,2.3,5.83,6.34c0,6.55-4.68,7.56-4.68,12.17a6.06,6.06,0,0,0,.15,1.4Zm3.64,1.77v3.81h-3.82v-3.81Z" style="fill:none;stroke:#263238;stroke-miterlimit:10"></path></g><g id="freepik--Letters--inject-61"><path d="M199.31,270.68h58.61V312H199.31V431.25H153.9V142.3H274v41.28H199.31Z" style="fill:#F2F2F2;stroke:#263238;stroke-miterlimit:10"></path><polyline points="269.02 153.48 269.02 178.58 194.31 178.58 194.31 275.68 230.31 275.68" style="fill:none;stroke:#263238;stroke-miterlimit:10"></polyline><polyline points="158.9 191.67 158.9 147.3 269.02 147.3 269.02 151.34" style="fill:none;stroke:#263238;stroke-miterlimit:10"></polyline><line x1="158.9" y1="404.49" x2="158.9" y2="197.25" style="fill:none;stroke:#263238;stroke-miterlimit:10"></line><polyline points="194.31 336.7 194.31 426.25 158.9 426.25 158.9 410.5" style="fill:none;stroke:#263238;stroke-miterlimit:10"></polyline><line x1="194.31" y1="321.68" x2="194.31" y2="330.26" style="fill:none;stroke:#263238;stroke-miterlimit:10"></line><polyline points="236.32 275.68 252.92 275.68 252.92 306.96 194.31 306.96 194.31 317.82" style="fill:none;stroke:#263238;stroke-miterlimit:10"></polyline><path d="M437.49,431.25H391.67l-7.84-52.42H328.1l-7.84,52.42H278.57L324.8,142.3h66.46ZM333.88,339.61h43.76L355.76,193.49Z" style="fill:#F2F2F2;stroke:#263238;stroke-miterlimit:10"></path><path d="M288.89,398.38l23.88-149.27m79.45,152.05-4.08-27.33H323.79L316,426.25H284.43L288,404.09m138.55-9.71,5.1,31.87H396l-3.12-20.83m7.34-175.56L425.67,389M313.93,241.86l15.13-94.56H387l11.78,73.57m-20,91.86-18-123.21h-9.89l-22.8,155.09h55.36l-3.59-24.55" style="fill:none;stroke:#263238;stroke-miterlimit:10"></path><path d="M454.42,211.65c0-46.23,24.35-72.65,68.93-72.65s68.94,26.42,68.94,72.65V361.9c0,16.1-2.89,29.72-8.67,40.46,2.06,5.36,5.37,6.19,12.8,6.19h4.12V449h-6.19c-20.23,0-33-7.43-39.21-19.81a93.21,93.21,0,0,1-31.79,5.36c-44.58,0-68.93-26.41-68.93-72.65Zm45.4,153.14c0,20.64,9.09,28.48,23.53,28.48s23.53-7.84,23.53-28.48v-156c0-20.64-9.08-28.48-23.53-28.48s-23.53,7.84-23.53,28.48Z" style="fill:#F2F2F2;stroke:#263238;stroke-miterlimit:10"></path><path d="M571.3,439.05A27.6,27.6,0,0,1,559.61,427l-2-4-4.19,1.53a87.77,87.77,0,0,1-30.08,5.06c-20.66,0-36.66-5.86-47.54-17.41a52.17,52.17,0,0,1-4.51-5.52M584,388.21A59.5,59.5,0,0,1,579.22,400l-1.09,2,.82,2.14c3.21,8.33,9.63,9.33,16.59,9.39V444h-1.19a55.08,55.08,0,0,1-17.26-2.45m10.2-213.84V361.9a101.85,101.85,0,0,1-1.95,20.66M459.85,201.46c1.49-16.92,6.84-30.36,16-40C486.69,149.86,502.69,144,523.35,144s36.67,5.86,47.55,17.42,16.39,28.45,16.39,50.23v9.63M467.19,399.76c-5.17-10.21-7.77-22.88-7.77-37.86V211.65c0-1.39,0-2.76.07-4.12m35.33,154.91v2.35c0,27.68,15.52,33.48,28.53,33.48s28.53-5.8,28.53-33.48V226m-57.06,25.74V356.86m57.06-137.73V208.76c0-27.67-15.51-33.48-28.53-33.48s-28.53,5.81-28.53,33.48V244" style="fill:none;stroke:#263238;stroke-miterlimit:10"></path></g></svg>